<?xml version="1.0" encoding="UTF-8" standalone="no"?>
<!-- Created with Inkscape (http://www.inkscape.org/) -->

<svg
   xmlns:dc="http://purl.org/dc/elements/1.1/"
   xmlns:cc="http://creativecommons.org/ns#"
   xmlns:rdf="http://www.w3.org/1999/02/22-rdf-syntax-ns#"
   xmlns:svg="http://www.w3.org/2000/svg"
   xmlns="http://www.w3.org/2000/svg"
   xmlns:sodipodi="http://sodipodi.sourceforge.net/DTD/sodipodi-0.dtd"
   xmlns:inkscape="http://www.inkscape.org/namespaces/inkscape"
   width="244.57065mm"
   height="107.2123mm"
   viewBox="0 0 866.58891 379.88611"
   id="svg2"
   version="1.1"
   inkscape:version="0.91 r13725"
   sodipodi:docname="ab2l.svg">
  <defs
     id="defs4">
    <clipPath
       id="clipPath4254"
       clipPathUnits="userSpaceOnUse">
      <path
         style="clip-rule:evenodd"
         inkscape:connector-curvature="0"
         id="path4256"
         d="m 176.5392,352.205 c 75.1881,45.3291 161.8288,43.219 193.5204,-4.7123 31.6919,-47.9316 -3.5702,-123.533 -78.7581,-168.8618 -75.1881,-45.3289 -161.8288,-43.2216 -193.5204,4.7126 -31.6919,47.9316 3.5702,123.5327 78.7581,168.8615" />
    </clipPath>
    <linearGradient
       id="linearGradient4258"
       spreadMethod="pad"
       gradientUnits="userSpaceOnUse"
       y2="353.01999"
       x2="366.41"
       y1="177.82001"
       x1="101.43">
      <stop
         id="stop4260"
         offset="0"
         style="stop-opacity:1;stop-color:#0095d4" />
      <stop
         id="stop4262"
         offset="1"
         style="stop-opacity:1;stop-color:#005a8d" />
    </linearGradient>
    <clipPath
       id="clipPath4270"
       clipPathUnits="userSpaceOnUse">
      <path
         style="clip-rule:evenodd"
         inkscape:connector-curvature="0"
         id="path4272"
         d="m 310.4623,421.3559 c 61.6867,-39.9796 89.174,-107.1388 61.3916,-150.0035 -27.7801,-42.8649 -100.3062,-45.2032 -161.9929,-5.2234 -61.687,39.9799 -89.1743,107.1363 -61.3916,150.0038 27.7798,42.8646 100.3062,45.2029 161.9929,5.2231" />
    </clipPath>
    <linearGradient
       id="linearGradient4274"
       spreadMethod="pad"
       gradientUnits="userSpaceOnUse"
       y2="271.35001"
       x2="371.85001"
       y1="416.13"
       x1="148.47">
      <stop
         id="stop4276"
         offset="0"
         style="stop-opacity:1;stop-color:#bcce31" />
      <stop
         id="stop4278"
         offset="1"
         style="stop-opacity:1;stop-color:#509442" />
    </linearGradient>
    <clipPath
       id="clipPath4286"
       clipPathUnits="userSpaceOnUse">
      <path
         style="clip-rule:evenodd"
         inkscape:connector-curvature="0"
         id="path4288"
         d="m 176.5375,352.2039 c 75.1878,45.3296 161.8316,43.2175 193.5238,-4.714 11.3391,-17.146 14.1032,-37.8338 9.5391,-59.4114 -1.7827,-5.8756 -4.3486,-11.4837 -7.7465,-16.7267 -27.7781,-42.8629 -100.3076,-45.2021 -161.9926,-5.2217 -28.0792,18.1982 -49.0703,42.0262 -60.9891,66.6324 8.4849,6.9188 17.7213,13.4472 27.6653,19.4414" />
    </clipPath>
    <linearGradient
       id="linearGradient4290"
       spreadMethod="pad"
       gradientUnits="userSpaceOnUse"
       y2="340.14999"
       x2="168.23"
       y1="302.69"
       x1="377.59">
      <stop
         id="stop4292"
         offset="0"
         style="stop-opacity:1;stop-color:#006637" />
      <stop
         id="stop4294"
         offset="1"
         style="stop-opacity:1;stop-color:#75b54d" />
    </linearGradient>
    <clipPath
       id="clipPath4302"
       clipPathUnits="userSpaceOnUse">
      <path
         style="clip-rule:evenodd"
         inkscape:connector-curvature="0"
         id="path4304"
         d="m 377.1944,281.4327 c -9.4878,-49.4938 -75.7318,-82.7283 -153.8924,-75.3384 -55.2617,5.2243 -102.4922,29.4358 -126.9175,61.1235 10.3841,22.9944 28.3566,45.8708 52.4857,65.5495 11.9191,-24.6082 32.91,-48.4393 60.9902,-66.6386 61.6859,-39.979 134.2134,-37.6404 161.9944,5.2243 2.0922,3.2284 3.865,6.5979 5.3396,10.0797" />
    </clipPath>
    <linearGradient
       id="linearGradient4306"
       spreadMethod="pad"
       gradientUnits="userSpaceOnUse"
       y2="206.73"
       x2="334.60999"
       y1="334.26001"
       x1="137.85001">
      <stop
         id="stop4308"
         offset="0"
         style="stop-opacity:1;stop-color:#e3e418" />
      <stop
         id="stop4310"
         offset="1"
         style="stop-opacity:1;stop-color:#007e41" />
    </linearGradient>
    <clipPath
       id="clipPath4302-3"
       clipPathUnits="userSpaceOnUse">
      <path
         style="clip-rule:evenodd"
         inkscape:connector-curvature="0"
         id="path4304-6"
         d="m 377.1944,281.4327 c -9.4878,-49.4938 -75.7318,-82.7283 -153.8924,-75.3384 -55.2617,5.2243 -102.4922,29.4358 -126.9175,61.1235 10.3841,22.9944 28.3566,45.8708 52.4857,65.5495 11.9191,-24.6082 32.91,-48.4393 60.9902,-66.6386 61.6859,-39.979 134.2134,-37.6404 161.9944,5.2243 2.0922,3.2284 3.865,6.5979 5.3396,10.0797" />
    </clipPath>
    <linearGradient
       id="linearGradient4306-7"
       spreadMethod="pad"
       gradientUnits="userSpaceOnUse"
       y2="206.73"
       x2="334.60999"
       y1="334.26001"
       x1="137.85001">
      <stop
         id="stop4308-5"
         offset="0"
         style="stop-opacity:1;stop-color:#e3e418" />
      <stop
         id="stop4310-3"
         offset="1"
         style="stop-opacity:1;stop-color:#007e41" />
    </linearGradient>
    <clipPath
       id="clipPath4286-5"
       clipPathUnits="userSpaceOnUse">
      <path
         style="clip-rule:evenodd"
         inkscape:connector-curvature="0"
         id="path4288-6"
         d="m 176.5375,352.2039 c 75.1878,45.3296 161.8316,43.2175 193.5238,-4.714 11.3391,-17.146 14.1032,-37.8338 9.5391,-59.4114 -1.7827,-5.8756 -4.3486,-11.4837 -7.7465,-16.7267 -27.7781,-42.8629 -100.3076,-45.2021 -161.9926,-5.2217 -28.0792,18.1982 -49.0703,42.0262 -60.9891,66.6324 8.4849,6.9188 17.7213,13.4472 27.6653,19.4414" />
    </clipPath>
    <linearGradient
       id="linearGradient4290-2"
       spreadMethod="pad"
       gradientUnits="userSpaceOnUse"
       y2="340.14999"
       x2="168.23"
       y1="302.69"
       x1="377.59">
      <stop
         id="stop4292-9"
         offset="0"
         style="stop-opacity:1;stop-color:#006637" />
      <stop
         id="stop4294-1"
         offset="1"
         style="stop-opacity:1;stop-color:#75b54d" />
    </linearGradient>
    <clipPath
       id="clipPath4270-2"
       clipPathUnits="userSpaceOnUse">
      <path
         style="clip-rule:evenodd"
         inkscape:connector-curvature="0"
         id="path4272-7"
         d="m 310.4623,421.3559 c 61.6867,-39.9796 89.174,-107.1388 61.3916,-150.0035 -27.7801,-42.8649 -100.3062,-45.2032 -161.9929,-5.2234 -61.687,39.9799 -89.1743,107.1363 -61.3916,150.0038 27.7798,42.8646 100.3062,45.2029 161.9929,5.2231" />
    </clipPath>
    <linearGradient
       id="linearGradient4274-0"
       spreadMethod="pad"
       gradientUnits="userSpaceOnUse"
       y2="271.35001"
       x2="371.85001"
       y1="416.13"
       x1="148.47">
      <stop
         id="stop4276-9"
         offset="0"
         style="stop-opacity:1;stop-color:#bcce31" />
      <stop
         id="stop4278-3"
         offset="1"
         style="stop-opacity:1;stop-color:#509442" />
    </linearGradient>
    <clipPath
       id="clipPath4254-6"
       clipPathUnits="userSpaceOnUse">
      <path
         style="clip-rule:evenodd"
         inkscape:connector-curvature="0"
         id="path4256-0"
         d="m 176.5392,352.205 c 75.1881,45.3291 161.8288,43.219 193.5204,-4.7123 31.6919,-47.9316 -3.5702,-123.533 -78.7581,-168.8618 -75.1881,-45.3289 -161.8288,-43.2216 -193.5204,4.7126 -31.6919,47.9316 3.5702,123.5327 78.7581,168.8615" />
    </clipPath>
    <linearGradient
       id="linearGradient4258-6"
       spreadMethod="pad"
       gradientUnits="userSpaceOnUse"
       y2="353.01999"
       x2="366.41"
       y1="177.82001"
       x1="101.43">
      <stop
         id="stop4260-2"
         offset="0"
         style="stop-opacity:1;stop-color:#0095d4" />
      <stop
         id="stop4262-6"
         offset="1"
         style="stop-opacity:1;stop-color:#005a8d" />
    </linearGradient>
  </defs>
  <sodipodi:namedview
     id="base"
     pagecolor="#ffffff"
     bordercolor="#666666"
     borderopacity="1.0"
     inkscape:pageopacity="0.0"
     inkscape:pageshadow="2"
     inkscape:zoom="0.7"
     inkscape:cx="199.78804"
     inkscape:cy="197.04399"
     inkscape:document-units="px"
     inkscape:current-layer="svg2"
     showgrid="false"
     fit-margin-top="0"
     fit-margin-left="0"
     fit-margin-right="0"
     fit-margin-bottom="0"
     inkscape:window-width="2560"
     inkscape:window-height="1056"
     inkscape:window-x="0"
     inkscape:window-y="24"
     inkscape:window-maximized="1" />
  <metadata
     id="metadata7">
    <rdf:RDF>
      <cc:Work
         rdf:about="">
        <dc:format>image/svg+xml</dc:format>
        <dc:type
           rdf:resource="http://purl.org/dc/dcmitype/StillImage" />
        <dc:title />
      </cc:Work>
    </rdf:RDF>
  </metadata>
  <path
     inkscape:connector-curvature="0"
     id="texto"
     style="fill:#403f41;fill-opacity:1;fill-rule:nonzero;stroke:none"
     d="m 440.49493,56.0521 -19.3372,48.1075 3.167,0 6.1314,-15.42975 23.0428,0 6.064,15.42975 3.1667,0 -19.0003,-48.1075 -3.2344,0 z m -9.0956,30.11775 10.7128,-27.22037 0.1347,0 10.3089,27.22037 -21.1564,0 z m 69.1289,-16.37287 c -0.4716,-10.57825 -8.3548,-14.8905 -18.394,-14.8905 -7.6136,0 -16.1703,3.571 -16.1703,12.80162 0,9.16338 8.2198,11.1175 16.3725,12.802 8.2202,1.6845 16.4399,3.09938 16.4399,11.25175 0,8.35475 -8.1524,10.9825 -13.9467,10.9825 -9.5004,0 -17.9225,-3.97525 -17.3161,-14.48612 l -2.9648,0 c -0.1346,12.39775 9.0287,17.0465 20.2809,17.0465 7.3438,0 16.9115,-3.57088 16.9115,-13.54288 0,-9.56725 -8.2202,-11.656 -16.4399,-13.3405 -8.1529,-1.6845 -16.373,-2.96475 -16.373,-10.71325 0,-7.95037 7.7485,-10.24112 13.206,-10.24112 8.894,0 15.0926,4.11012 15.4296,12.33 l 2.9644,0 z m 42.4478,0 c -0.4717,-10.57825 -8.3548,-14.8905 -18.3941,-14.8905 -7.6135,0 -16.1706,3.571 -16.1706,12.80162 0,9.16338 8.2201,11.1175 16.3729,12.802 8.2198,1.6845 16.4399,3.09938 16.4399,11.25175 0,8.35475 -8.1524,10.9825 -13.9471,10.9825 -9.5,0 -17.922,-3.97525 -17.3158,-14.48612 l -2.9648,0 c -0.1346,12.39775 9.0288,17.0465 20.2806,17.0465 7.3442,0 16.9118,-3.57088 16.9118,-13.54288 0,-9.56725 -8.2201,-11.656 -16.4398,-13.3405 -8.1529,-1.6845 -16.3731,-2.96475 -16.3731,-10.71325 0,-7.95037 7.7485,-10.24112 13.206,-10.24112 8.8941,0 15.0927,4.11012 15.4293,12.33 l 2.9648,0 z m 51.6783,10.30887 c 0,-14.08187 -8.4894,-25.19937 -22.8409,-25.19937 -14.4187,0 -22.9081,11.1175 -22.9081,25.19937 0,14.08175 8.4894,25.19888 22.9081,25.19888 14.3515,0 22.8409,-11.11713 22.8409,-25.19888 z m -42.7844,0 c 0,-12.33 7.3439,-22.63888 19.9435,-22.63888 12.5324,0 19.8763,10.30888 19.8763,22.63888 0,12.33 -7.3439,22.6385 -19.8763,22.6385 -12.5996,0 -19.9435,-10.3085 -19.9435,-22.6385 z m 89.5444,-9.70238 c -0.067,-0.67387 -2.2907,-15.497 -19.3372,-15.497 -14.4188,0 -22.9087,11.1175 -22.9087,25.19938 0,14.08175 8.4899,25.19887 22.9087,25.19887 10.5781,0 19.0676,-8.422 20.1457,-19.87612 l -2.9646,0 c -0.539,8.961 -7.8159,17.31575 -17.1811,17.31575 -12.5997,0 -19.9439,-10.3085 -19.9439,-22.6385 0,-12.33 7.3442,-22.63888 19.9439,-22.63888 8.0177,0 15.0923,4.85113 16.3724,12.9365 l 2.9648,0 z m 7.0073,33.75613 2.9646,0 0,-48.1075 -2.9646,0 0,48.1075 z m 25.7378,-48.1075 -19.3372,48.1075 3.167,0 6.1314,-15.42975 23.0427,0 6.064,15.42975 3.1668,0 -19.0004,-48.1075 -3.2343,0 z m -9.0957,30.11775 10.7129,-27.22037 0.1346,0 10.3089,27.22037 -21.1564,0 z m 75.1929,-15.76637 c -0.067,-0.67388 -2.2908,-15.497 -19.3373,-15.497 -14.4187,0 -22.9081,11.1175 -22.9081,25.19937 0,13.27325 7.5461,23.91875 20.4827,25.06425 l -2.9646,4.04263 1.0779,0.87587 c 1.0109,-0.47162 2.1561,-0.80863 3.5709,-0.80863 1.2128,0 3.3017,0.94325 3.3017,3.09938 0,2.42575 -2.2907,3.167 -4.2449,3.167 -2.2907,0 -3.908,-0.674 -5.3901,-1.21288 l -0.7412,1.61713 c 1.1455,0.60625 3.2342,1.41487 6.064,1.41487 4.0425,0 6.8726,-1.41487 6.8726,-4.98612 0,-3.436 -2.4931,-4.9185 -5.0535,-4.9185 -1.0779,0 -1.8865,0.337 -2.4928,0.60662 l -0.135,-0.135 2.2235,-2.62775 0.3369,0 c 10.5783,0 19.068,-8.422 20.1459,-19.87612 l -2.9646,0 c -0.539,8.961 -7.8159,17.31575 -17.1813,17.31575 -12.5996,0 -19.9435,-10.3085 -19.9435,-22.6385 0,-12.33 7.3439,-22.63888 19.9435,-22.63888 8.0179,0 15.0928,4.85113 16.3726,12.9365 l 2.9647,0 z m 21.2913,-14.35138 -19.3372,48.1075 3.1667,0 6.1313,-15.42975 23.0429,0 6.064,15.42975 3.167,0 -19.0007,-48.1075 -3.234,0 z m -9.096,30.11775 10.7129,-27.22037 0.135,0 10.3085,27.22037 -21.1564,0 z m 2.7624,-34.22762 c 0.2696,-1.75188 1.1456,-3.84063 3.032,-3.84063 1.6171,0 3.1666,0.94325 4.7165,1.8865 1.4149,0.87588 3.032,1.95413 4.6493,1.95413 1.7517,0 2.8969,-0.87588 3.7054,-1.95413 0.8087,-1.07787 1.2129,-2.56037 1.4149,-4.10987 l -1.9537,0 c -0.2024,1.75175 -1.1457,3.84025 -3.032,3.84025 -1.4149,0 -2.9648,-1.14525 -4.5819,-2.02113 -1.6169,-0.876 -3.1666,-1.81912 -4.7161,-1.81912 -1.5499,0 -2.8302,0.74087 -3.706,1.88637 -0.8085,1.14563 -1.3475,2.69513 -1.4822,4.17763 l 1.9538,0 z m 75.5975,28.16362 c 0,-14.08187 -8.4897,-25.19937 -22.8409,-25.19937 -14.4187,0 -22.9085,11.1175 -22.9085,25.19937 0,14.08175 8.4898,25.19888 22.9085,25.19888 14.3512,0 22.8409,-11.11713 22.8409,-25.19888 z m -42.7848,0 c 0,-12.33 7.3443,-22.63888 19.9439,-22.63888 12.532,0 19.8763,10.30888 19.8763,22.63888 0,12.33 -7.3443,22.6385 -19.8763,22.6385 -12.5996,0 -19.9439,-10.3085 -19.9439,-22.6385 z m -358.8512,77.21425 16.3053,0 c 6.3333,0 13.8122,2.0215 13.8122,10.24125 0,7.14225 -5.3227,10.91513 -13.8122,10.91513 l -16.3053,0 0,-21.15638 z m -2.9646,23.71688 19.2699,0 c 10.0392,0 16.7768,-4.7165 16.7768,-13.47563 0,-9.70225 -9.5676,-11.993 -10.8478,-11.791 l -0.1347,-0.13462 c 5.5924,-0.67363 9.3654,-5.05313 9.3654,-10.24125 0,-6.19875 -3.7056,-12.465 -15.1597,-12.465 l -19.2699,0 0,48.1075 z m 2.9646,-45.54713 16.3053,0 c 6.4006,0 12.1953,2.42575 12.1953,9.36525 0,5.86213 -4.1775,9.90463 -12.1953,9.90463 l -16.3053,0 0,-19.26988 z m 42.4475,21.089 0,-21.089 17.1141,0 c 6.468,0 12.2624,2.76238 12.2624,10.03925 0,7.7485 -5.2551,11.04975 -12.2624,11.04975 l -17.1141,0 z m -2.9644,24.45813 2.9644,0 0,-21.89775 17.1141,0 c 8.4222,0 10.7129,3.77337 11.3192,8.42212 0.5392,4.64925 -0.539,10.17388 1.2801,13.47563 l 3.3017,0 c -1.9542,-2.5605 -1.1456,-7.9505 -1.6172,-12.93663 -0.4716,-4.98587 -2.2234,-9.5 -9.3653,-10.30862 l 0,-0.13463 c 6.4007,-1.07825 10.3085,-5.862 10.3085,-12.33 0,-9.29837 -6.8048,-12.39762 -15.227,-12.39762 l -20.0785,0 0,48.1075 z m 56.7315,-48.1075 -19.3372,48.1075 3.1667,0 6.1313,-15.42938 23.0432,0 6.064,15.42938 3.1667,0 -19.0003,-48.1075 -3.2344,0 z m -9.096,30.11775 10.7133,-27.22038 0.1346,0 10.3089,27.22038 -21.1568,0 z m 69.1293,-16.37263 c -0.4717,-10.5785 -8.3548,-14.89037 -18.394,-14.89037 -7.6135,0 -16.1707,3.571 -16.1707,12.80162 0,9.16338 8.2202,11.11713 16.3729,12.80163 8.2198,1.6845 16.4399,3.09937 16.4399,11.25212 0,8.35475 -8.1528,10.9825 -13.9471,10.9825 -9.5,0 -17.9224,-3.97525 -17.3158,-14.48612 l -2.9647,0 c -0.1347,12.39737 9.0287,17.0465 20.2805,17.0465 7.3442,0 16.9118,-3.57125 16.9118,-13.54288 0,-9.56762 -8.2201,-11.65637 -16.4402,-13.34087 -8.1525,-1.6845 -16.3726,-2.96438 -16.3726,-10.71288 0,-7.9505 7.7485,-10.24162 13.206,-10.24162 8.8936,0 15.0926,4.11025 15.4292,12.33037 l 2.9648,0 z m 8.0855,34.36238 2.9642,0 0,-48.1075 -2.9642,0 0,48.1075 z m 11.454,0 30.2523,0 0,-2.5605 -27.288,0 0,-45.547 -2.9643,0 0,48.10749 z m 36.6531,-2.5605 0,-21.15638 27.6246,0 0,-2.56037 -27.6246,0 0,-19.26988 29.3765,0 0,-2.56037 -32.3413,0 0,48.1075 32.6782,0 0,-2.5605 -29.7134,0 z m 34.7669,2.5605 2.9643,0 0,-48.1075 -2.9643,0 0,48.1075 z m 14.4183,-24.45813 0,-21.089 17.1139,0 c 6.4683,0 12.2626,2.76238 12.2626,10.03925 0,7.7485 -5.2553,11.04975 -12.2626,11.04975 l -17.1139,0 z m -2.9642,24.45813 2.9642,0 0,-21.89775 17.1139,0 c 8.4224,0 10.7131,3.77337 11.3195,8.42212 0.5393,4.64925 -0.539,10.17388 1.2801,13.47563 l 3.3017,0 c -1.9542,-2.5605 -1.1455,-7.9505 -1.6172,-12.93663 -0.4716,-4.98587 -2.2233,-9.5 -9.3653,-10.30862 l 0,-0.13463 c 6.4007,-1.07825 10.3086,-5.862 10.3086,-12.33 0,-9.29837 -6.805,-12.39762 -15.2274,-12.39762 l -20.0781,0 0,48.1075 z m 56.7315,-48.1075 -19.3372,48.1075 3.1666,0 6.1314,-15.42938 23.0432,0 6.064,15.42938 3.1666,0 -19.0006,-48.1075 -3.234,0 z m -9.096,30.11775 10.7131,-27.22038 0.1347,0 10.309,27.22038 -21.1568,0 z m 56.4622,-27.55738 12.3301,0 c 7.1422,0 19.7415,1.75175 19.7415,21.426 0,16.64225 -10.1739,21.56063 -19.1349,21.56063 l -12.9367,0 0,-42.98663 z m -2.9647,45.54713 15.6318,0 c 15.4292,0 22.3692,-10.51088 22.3692,-24.12113 0,-12.19537 -5.0535,-23.98637 -22.2346,-23.98637 l -15.7664,0 0,48.1075 z m 47.9055,-2.5605 0,-21.15638 27.6247,0 0,-2.56037 -27.6247,0 0,-19.26988 29.3765,0 0,-2.56037 -32.3411,0 0,48.1075 32.6777,0 0,-2.5605 -29.7131,0 z m -409.6541,81.12225 31.8696,0 0,-5.39 -25.4686,0 0,-42.71738 -6.401,0 0,48.10738 z m 31.735,0 6.6029,0 5.3901,-14.486 20.3477,0 5.2555,14.486 7.0745,0 -18.7978,-48.10738 -7.075,0 -18.7979,48.10738 z m 22.1669,-42.31275 0.1346,0 8.0181,22.43662 -16.3051,0 8.1524,-22.43662 z m 81.9308,-5.79463 -6.401,0 -9.7696,40.02225 -0.1346,0 -10.6455,-40.02225 -6.94,0 -10.7805,40.02225 -0.1346,0 -9.433,-40.02225 -6.5357,0 12.3304,48.10738 6.6703,0 11.1171,-40.42625 0.1346,0 10.9825,40.42625 6.6706,0 12.869,-48.10738 z m 16.9791,48.10738 6.4007,0 0,-42.717 16.036,0 0,-5.39038 -38.4725,0 0,5.39038 16.0358,0 0,42.717 z m 27.7594,0 33.419,0 0,-5.39 -27.018,0 0,-16.64225 24.9969,0 0,-5.39013 -24.9969,0 0,-15.29462 26.816,0 0,-5.39038 -33.217,0 0,48.10738 z m 81.3919,-33.621 c -1.4825,-10.2415 -9.77,-15.63163 -19.8089,-15.63163 -14.8231,0 -22.7735,11.38675 -22.7735,25.33388 0,14.0145 7.2765,25.06437 22.2343,25.06437 12.128,0 19.6069,-7.27687 20.8197,-19.27 l -6.401,0 c -0.6062,7.9505 -5.4573,13.87988 -13.8795,13.87988 -11.5217,0 -16.3728,-9.16338 -16.3728,-20.14575 0,-10.03925 4.8511,-19.47225 16.3052,-19.47225 6.6706,0 12.128,3.43625 13.4755,10.2415 l 6.401,0 z m 8.4221,33.621 6.4009,0 0,-22.03225 25.3336,0 0,22.03225 6.401,0 0,-48.10738 -6.401,0 0,20.685 -25.3336,0 0,-20.685 -6.4009,0 0,48.10738 z m 82.537,-34.02525 c -0.4042,-10.5785 -7.8831,-15.22738 -17.72,-15.22738 -8.7591,0 -17.4509,4.31225 -17.4509,14.08175 0,8.82638 7.7485,11.04988 15.4294,12.73438 7.6811,1.6845 15.362,2.82962 15.362,9.433 0,6.9395 -6.4006,8.759 -12.1954,8.759 -7.2765,0 -14.0145,-3.50363 -14.0145,-11.58913 l -6.0636,0 c 0,11.72375 9.0956,16.97925 19.8761,16.97925 8.7592,0 18.7984,-4.11025 18.7984,-14.3515 0,-9.43262 -7.6812,-12.128 -15.362,-13.87987 -7.7485,-1.75175 -15.4294,-2.62763 -15.4294,-8.55663 0,-6.266 5.3902,-8.22012 10.7802,-8.22012 6.603,0 11.1848,2.96462 11.9257,9.83725 l 6.064,0 z m 50.9373,24.05337 c -2.3581,3.50363 -5.8618,5.72738 -10.2413,5.72738 -4.6492,0 -9.1633,-3.30163 -9.1633,-8.15275 0,-5.72713 3.8406,-8.2875 8.3547,-10.84788 l 11.0499,13.27325 z m 8.2874,9.97188 7.4788,0 -9.3653,-10.84775 c 2.0215,-4.24463 2.7623,-6.19875 3.234,-11.85838 l -5.4574,0 c -0.1346,2.56038 -0.6739,5.12075 -1.5499,7.47875 l -8.6914,-10.57812 c 4.6489,-2.62775 9.0284,-6.73763 9.0284,-12.46463 0,-6.53562 -5.6597,-9.83725 -11.656,-9.83725 -6.94,0 -10.8479,4.64913 -10.8479,9.9045 0,4.9185 2.6278,7.47888 5.3228,11.3195 -6.1314,3.234 -11.2521,7.00725 -11.2521,14.55338 0,3.908 2.0215,13.13862 15.0253,13.13862 5.2555,0 10.7129,-2.29075 13.6103,-6.80487 l 5.1204,5.99625 z m -17.4508,-29.57838 c -2.0885,-2.62775 -4.6489,-5.45775 -4.6489,-8.35475 0,-3.50362 2.8298,-5.12087 5.5248,-5.12087 3.4362,0 5.5251,2.35812 5.5251,5.12087 0,4.0425 -3.6382,6.60288 -6.401,8.35475 z m -394.6961,108.14025 31.8696,0 0,-5.39 -25.4686,0 0,-42.71712 -6.401,0 0,48.10712 z m 37.462,0 33.4191,0 0,-5.39 -27.0185,0 0,-16.64225 24.997,0 0,-5.39013 -24.997,0 0,-15.29462 26.8161,0 0,-5.39012 -33.2167,0 0,48.10712 z m 78.8311,0 4.043,0 0,-25.3335 -21.0891,0 0,5.39 15.362,0 c 0.4043,8.75912 -5.5251,15.699 -15.4296,15.699 -10.7129,0 -16.5073,-9.16338 -16.5073,-19.20263 0,-10.30887 4.8511,-20.41549 16.5073,-20.41549 7.1422,0 13.0038,3.30175 14.2841,10.57824 l 6.401,0 c -1.8195,-11.25174 -10.1743,-15.96824 -20.6851,-15.96824 -15.227,0 -22.9083,12.12799 -22.9083,26.14249 0,12.532 8.5571,24.25575 22.9083,24.25575 5.6596,0 11.7237,-2.08887 15.4296,-7.142 l 1.6841,5.99638 z m 7.7485,0 6.603,0 5.39,-14.48613 20.3483,0 5.2553,14.48613 7.0747,0 -18.7984,-48.10712 -7.0745,0 -18.7984,48.10712 z m 22.1673,-42.31275 0.1347,0 8.0178,22.43662 -16.3053,0 8.1528,-22.43662 z m 27.2204,42.31275 31.8692,0 0,-5.39 -25.4685,0 0,-42.71712 -6.4007,0 0,48.10712 z m 42.1782,0 6.4008,0 0,-42.717 16.0357,0 0,-5.39012 -38.4725,0 0,5.39012 16.036,0 0,42.717 z m 27.7592,0 33.4194,0 0,-5.39 -27.0184,0 0,-16.64225 24.997,0 0,-5.39013 -24.997,0 0,-15.29462 26.8161,0 0,-5.39012 -33.2171,0 0,48.10712 z m 81.3919,-33.621 c -1.4821,-10.24162 -9.7696,-15.63162 -19.8089,-15.63162 -14.823,0 -22.7735,11.38674 -22.7735,25.33387 0,14.0145 7.2765,25.06437 22.2347,25.06437 12.1276,0 19.6065,-7.277 20.8193,-19.27 l -6.401,0 c -0.6062,7.9505 -5.4574,13.87988 -13.8795,13.87988 -11.5213,0 -16.3729,-9.16338 -16.3729,-20.14588 0,-10.03925 4.8516,-19.47224 16.3057,-19.47224 6.6702,0 12.1276,3.43637 13.4751,10.24162 l 6.401,0 z m 8.4221,33.621 6.401,0 0,-22.03225 25.3339,0 0,22.03225 6.4006,0 0,-48.10712 -6.4006,0 0,20.68474 -25.3339,0 0,-20.68474 -6.401,0 0,48.10712 z m 82.5372,-34.02525 c -0.404,-10.57825 -7.8833,-15.22737 -17.7202,-15.22737 -8.759,0 -17.4507,4.31212 -17.4507,14.08174 0,8.82638 7.7485,11.04988 15.4292,12.73438 7.6813,1.68437 15.362,2.83 15.362,9.433 0,6.93987 -6.4006,8.759 -12.195,8.759 -7.2768,0 -14.0144,-3.50363 -14.0144,-11.58913 l -6.0641,0 c 0,11.72375 9.0961,16.97925 19.8763,16.97925 8.759,0 18.7982,-4.10987 18.7982,-14.3515 0,-9.43262 -7.6807,-12.12762 -15.362,-13.8795 -7.7485,-1.75175 -15.4292,-2.62775 -15.4292,-8.55712 0,-6.266 5.39,-8.22012 10.7801,-8.22012 6.603,0 11.1848,2.96475 11.926,9.83737 l 6.0637,0 z" />
  <g
     id="icon">
    <path
       d="m 193.83643,58.87223 c 103.4147,9.7795 184.3509,72.742 180.7733,140.63562 -3.5741,67.89075 -90.308,115.00012 -193.7226,105.221 C 77.472864,294.94922 -3.4601357,231.9836 0.11396435,164.09323 3.6913643,96.19923 90.421964,49.09298 193.83643,58.87223"
       style="fill:#ddb825;fill-opacity:1;fill-rule:evenodd;stroke:none"
       id="petala-laranja-esquerda"
       inkscape:connector-curvature="0" />
    <g
       transform="matrix(1.25,0,0,-1.25,-98.238236,562.3446)"
       id="petala-azul-inferior">
      <g
         id="g4252"
         clip-path="url(#clipPath4254-6)">
        <path
           d="m 176.5392,352.205 c 75.1881,45.3291 161.8288,43.219 193.5204,-4.7123 31.6919,-47.9316 -3.5702,-123.533 -78.7581,-168.8618 -75.1881,-45.3289 -161.8288,-43.2216 -193.5204,4.7126 -31.6919,47.9316 3.5702,123.5327 78.7581,168.8615"
           style="fill:url(#linearGradient4258-6);fill-rule:evenodd;stroke:none"
           id="path4264"
           inkscape:connector-curvature="0" />
      </g>
    </g>
    <g
       transform="matrix(1.25,0,0,-1.25,-98.238236,562.3446)"
       id="petala-verde-superior">
      <g
         id="g4268"
         clip-path="url(#clipPath4270-2)">
        <path
           d="m 310.4623,421.3559 c 61.6867,-39.9796 89.174,-107.1388 61.3916,-150.0035 -27.7801,-42.8649 -100.3062,-45.2032 -161.9929,-5.2234 -61.687,39.9799 -89.1743,107.1363 -61.3916,150.0038 27.7798,42.8646 100.3062,45.2029 161.9929,5.2231"
           style="fill:url(#linearGradient4274-0);fill-rule:evenodd;stroke:none"
           id="path4280"
           inkscape:connector-curvature="0" />
      </g>
    </g>
    <g
       transform="matrix(1.25,0,0,-1.25,-98.238236,562.3446)"
       id="petala-verde-direita">
      <g
         id="g4284"
         clip-path="url(#clipPath4286-5)">
        <path
           d="m 176.5375,352.2039 c 75.1878,45.3296 161.8316,43.2175 193.5238,-4.714 11.3391,-17.146 14.1032,-37.8338 9.5391,-59.4114 -1.7827,-5.8756 -4.3486,-11.4837 -7.7465,-16.7267 -27.7781,-42.8629 -100.3076,-45.2021 -161.9926,-5.2217 -28.0792,18.1982 -49.0703,42.0262 -60.9891,66.6324 8.4849,6.9188 17.7213,13.4472 27.6653,19.4414"
           style="fill:url(#linearGradient4290-2);fill-rule:evenodd;stroke:none"
           id="path4296"
           inkscape:connector-curvature="0" />
      </g>
    </g>
    <g
       transform="matrix(1.25,0,0,-1.25,-98.238236,562.3446)"
       id="petala-laranja-overlay">
      <g
         id="petala-overlay"
         clip-path="url(#clipPath4302-3)">
        <path
           d="m 377.1944,281.4327 c -9.4878,-49.4938 -75.7318,-82.7283 -153.8924,-75.3384 -55.2617,5.2243 -102.4922,29.4358 -126.9175,61.1235 10.3841,22.9944 28.3566,45.8708 52.4857,65.5495 11.9191,-24.6082 32.91,-48.4393 60.9902,-66.6386 61.6859,-39.979 134.2134,-37.6404 161.9944,5.2243 2.0922,3.2284 3.865,6.5979 5.3396,10.0797"
           style="fill:url(#linearGradient4306-7);fill-rule:evenodd;stroke:none"
           id="path4312"
           inkscape:connector-curvature="0" />
      </g>
    </g>
    <path
       d="m 7.6602643,257.32072 33.0950997,0 3.1763,-20.89337 24.7372,0 3.1763,20.89337 33.095096,0 -29.084496,-119.34425 -39.1143,0 -29.0811997,119.34425 z m 57.3316997,-44.29237 -17.3835,0 8.5249,-50.64838 0.3338,0 8.5248,50.64838 z m 46.130996,44.29237 46.96837,0 c 25.9083,0 35.9344,-14.54062 35.9344,-35.26725 0,-12.36825 -6.3492,-25.741 -22.0614,-27.24587 l 0,-0.33375 c 13.2032,-2.67587 18.7183,-14.04 18.7183,-26.74237 0,-17.887 -10.3599,-29.755 -32.5913,-29.755 l -46.96837,0 0,119.34425 z m 31.0898,-96.94625 7.5206,0 c 6.3528,0 9.86277,5.68563 9.86277,12.36863 0,6.35275 -3.50997,12.03487 -9.86277,12.03487 l -7.5206,0 0,-24.4035 z m 0,45.46388 8.6916,0 c 5.6821,0 11.03077,5.18137 11.03077,14.37687 0,9.69276 -5.34867,14.70763 -11.03077,14.70763 l -8.6916,0 0,-29.0845 z m 89.75607,-26.7425 0,-5.01475 c 0,-13.36963 4.3474,-15.71175 8.6918,-15.71175 4.848,0 8.0242,3.17625 8.0242,13.20588 0,8.85862 -2.3421,13.36962 -8.358,19.38862 l -20.7266,21.06037 c -13.5396,13.87313 -17.7169,28.91763 -17.7169,45.2965 l 77.8915,0 0,-23.39887 -40.786,0 c 1.1711,-3.51037 5.0149,-7.02037 7.6908,-9.69588 l 18.3845,-17.88412 c 8.8582,-8.85838 14.7107,-19.05488 14.7107,-35.10038 0,-17.72012 -7.0203,-32.26075 -38.11,-32.26075 -16.0487,0 -25.7415,4.01063 -31.4235,11.03063 -5.6852,7.02 -7.1901,16.88287 -7.357,29.0845 l 29.0845,0 z m 61.0088,78.22487 69.3662,0 0,-25.40762 -38.2766,0 0,-93.93663 -31.0896,0 0,119.34425 z"
       style="fill:#ffffff;fill-opacity:1;fill-rule:nonzero;stroke:none"
       id="texto-ab2l"
       inkscape:connector-curvature="0" />
  </g>
</svg>
