<?xml version="1.0" encoding="UTF-8" standalone="no"?>
<!-- Created with Inkscape (http://www.inkscape.org/) -->

<svg
   xmlns:dc="http://purl.org/dc/elements/1.1/"
   xmlns:cc="http://creativecommons.org/ns#"
   xmlns:rdf="http://www.w3.org/1999/02/22-rdf-syntax-ns#"
   xmlns:svg="http://www.w3.org/2000/svg"
   xmlns="http://www.w3.org/2000/svg"
   xmlns:sodipodi="http://sodipodi.sourceforge.net/DTD/sodipodi-0.dtd"
   xmlns:inkscape="http://www.inkscape.org/namespaces/inkscape"
   width="462.70743mm"
   height="107.2123mm"
   viewBox="0 0 1639.5145 379.88611"
   id="svg2"
   version="1.1"
   inkscape:version="0.91 r13725"
   sodipodi:docname="page-brand.svg"
   inkscape:export-filename="/home/lfamorim/next/radar-ab2l/static/logomarca/ab2l-icon-highres.png"
   inkscape:export-xdpi="121.29951"
   inkscape:export-ydpi="121.29951">
  <defs
     id="defs4">
    <clipPath
       id="clipPath4254"
       clipPathUnits="userSpaceOnUse">
      <path
         style="clip-rule:evenodd"
         inkscape:connector-curvature="0"
         id="path4256"
         d="m 176.5392,352.205 c 75.1881,45.3291 161.8288,43.219 193.5204,-4.7123 31.6919,-47.9316 -3.5702,-123.533 -78.7581,-168.8618 -75.1881,-45.3289 -161.8288,-43.2216 -193.5204,4.7126 -31.6919,47.9316 3.5702,123.5327 78.7581,168.8615" />
    </clipPath>
    <linearGradient
       id="linearGradient4258"
       spreadMethod="pad"
       gradientUnits="userSpaceOnUse"
       y2="353.01999"
       x2="366.41"
       y1="177.82001"
       x1="101.43">
      <stop
         id="stop4260"
         offset="0"
         style="stop-opacity:1;stop-color:#0095d4" />
      <stop
         id="stop4262"
         offset="1"
         style="stop-opacity:1;stop-color:#005a8d" />
    </linearGradient>
    <clipPath
       id="clipPath4270"
       clipPathUnits="userSpaceOnUse">
      <path
         style="clip-rule:evenodd"
         inkscape:connector-curvature="0"
         id="path4272"
         d="m 310.4623,421.3559 c 61.6867,-39.9796 89.174,-107.1388 61.3916,-150.0035 -27.7801,-42.8649 -100.3062,-45.2032 -161.9929,-5.2234 -61.687,39.9799 -89.1743,107.1363 -61.3916,150.0038 27.7798,42.8646 100.3062,45.2029 161.9929,5.2231" />
    </clipPath>
    <linearGradient
       id="linearGradient4274"
       spreadMethod="pad"
       gradientUnits="userSpaceOnUse"
       y2="271.35001"
       x2="371.85001"
       y1="416.13"
       x1="148.47">
      <stop
         id="stop4276"
         offset="0"
         style="stop-opacity:1;stop-color:#bcce31" />
      <stop
         id="stop4278"
         offset="1"
         style="stop-opacity:1;stop-color:#509442" />
    </linearGradient>
    <clipPath
       id="clipPath4286"
       clipPathUnits="userSpaceOnUse">
      <path
         style="clip-rule:evenodd"
         inkscape:connector-curvature="0"
         id="path4288"
         d="m 176.5375,352.2039 c 75.1878,45.3296 161.8316,43.2175 193.5238,-4.714 11.3391,-17.146 14.1032,-37.8338 9.5391,-59.4114 -1.7827,-5.8756 -4.3486,-11.4837 -7.7465,-16.7267 -27.7781,-42.8629 -100.3076,-45.2021 -161.9926,-5.2217 -28.0792,18.1982 -49.0703,42.0262 -60.9891,66.6324 8.4849,6.9188 17.7213,13.4472 27.6653,19.4414" />
    </clipPath>
    <linearGradient
       id="linearGradient4290"
       spreadMethod="pad"
       gradientUnits="userSpaceOnUse"
       y2="340.14999"
       x2="168.23"
       y1="302.69"
       x1="377.59">
      <stop
         id="stop4292"
         offset="0"
         style="stop-opacity:1;stop-color:#006637" />
      <stop
         id="stop4294"
         offset="1"
         style="stop-opacity:1;stop-color:#75b54d" />
    </linearGradient>
    <clipPath
       id="clipPath4302"
       clipPathUnits="userSpaceOnUse">
      <path
         style="clip-rule:evenodd"
         inkscape:connector-curvature="0"
         id="path4304"
         d="m 377.1944,281.4327 c -9.4878,-49.4938 -75.7318,-82.7283 -153.8924,-75.3384 -55.2617,5.2243 -102.4922,29.4358 -126.9175,61.1235 10.3841,22.9944 28.3566,45.8708 52.4857,65.5495 11.9191,-24.6082 32.91,-48.4393 60.9902,-66.6386 61.6859,-39.979 134.2134,-37.6404 161.9944,5.2243 2.0922,3.2284 3.865,6.5979 5.3396,10.0797" />
    </clipPath>
    <linearGradient
       id="linearGradient4306"
       spreadMethod="pad"
       gradientUnits="userSpaceOnUse"
       y2="206.73"
       x2="334.60999"
       y1="334.26001"
       x1="137.85001">
      <stop
         id="stop4308"
         offset="0"
         style="stop-opacity:1;stop-color:#e3e418" />
      <stop
         id="stop4310"
         offset="1"
         style="stop-opacity:1;stop-color:#007e41" />
    </linearGradient>
    <clipPath
       id="clipPath4302-3"
       clipPathUnits="userSpaceOnUse">
      <path
         style="clip-rule:evenodd"
         inkscape:connector-curvature="0"
         id="path4304-6"
         d="m 377.1944,281.4327 c -9.4878,-49.4938 -75.7318,-82.7283 -153.8924,-75.3384 -55.2617,5.2243 -102.4922,29.4358 -126.9175,61.1235 10.3841,22.9944 28.3566,45.8708 52.4857,65.5495 11.9191,-24.6082 32.91,-48.4393 60.9902,-66.6386 61.6859,-39.979 134.2134,-37.6404 161.9944,5.2243 2.0922,3.2284 3.865,6.5979 5.3396,10.0797" />
    </clipPath>
    <linearGradient
       id="linearGradient4306-7"
       spreadMethod="pad"
       gradientUnits="userSpaceOnUse"
       y2="206.73"
       x2="334.60999"
       y1="334.26001"
       x1="137.85001">
      <stop
         id="stop4308-5"
         offset="0"
         style="stop-opacity:1;stop-color:#e3e418" />
      <stop
         id="stop4310-3"
         offset="1"
         style="stop-opacity:1;stop-color:#007e41" />
    </linearGradient>
    <clipPath
       id="clipPath4286-5"
       clipPathUnits="userSpaceOnUse">
      <path
         style="clip-rule:evenodd"
         inkscape:connector-curvature="0"
         id="path4288-6"
         d="m 176.5375,352.2039 c 75.1878,45.3296 161.8316,43.2175 193.5238,-4.714 11.3391,-17.146 14.1032,-37.8338 9.5391,-59.4114 -1.7827,-5.8756 -4.3486,-11.4837 -7.7465,-16.7267 -27.7781,-42.8629 -100.3076,-45.2021 -161.9926,-5.2217 -28.0792,18.1982 -49.0703,42.0262 -60.9891,66.6324 8.4849,6.9188 17.7213,13.4472 27.6653,19.4414" />
    </clipPath>
    <linearGradient
       id="linearGradient4290-2"
       spreadMethod="pad"
       gradientUnits="userSpaceOnUse"
       y2="340.14999"
       x2="168.23"
       y1="302.69"
       x1="377.59">
      <stop
         id="stop4292-9"
         offset="0"
         style="stop-opacity:1;stop-color:#006637" />
      <stop
         id="stop4294-1"
         offset="1"
         style="stop-opacity:1;stop-color:#75b54d" />
    </linearGradient>
    <clipPath
       id="clipPath4270-2"
       clipPathUnits="userSpaceOnUse">
      <path
         style="clip-rule:evenodd"
         inkscape:connector-curvature="0"
         id="path4272-7"
         d="m 310.4623,421.3559 c 61.6867,-39.9796 89.174,-107.1388 61.3916,-150.0035 -27.7801,-42.8649 -100.3062,-45.2032 -161.9929,-5.2234 -61.687,39.9799 -89.1743,107.1363 -61.3916,150.0038 27.7798,42.8646 100.3062,45.2029 161.9929,5.2231" />
    </clipPath>
    <linearGradient
       id="linearGradient4274-0"
       spreadMethod="pad"
       gradientUnits="userSpaceOnUse"
       y2="271.35001"
       x2="371.85001"
       y1="416.13"
       x1="148.47">
      <stop
         id="stop4276-9"
         offset="0"
         style="stop-opacity:1;stop-color:#bcce31" />
      <stop
         id="stop4278-3"
         offset="1"
         style="stop-opacity:1;stop-color:#509442" />
    </linearGradient>
    <clipPath
       id="clipPath4254-6"
       clipPathUnits="userSpaceOnUse">
      <path
         style="clip-rule:evenodd"
         inkscape:connector-curvature="0"
         id="path4256-0"
         d="m 176.5392,352.205 c 75.1881,45.3291 161.8288,43.219 193.5204,-4.7123 31.6919,-47.9316 -3.5702,-123.533 -78.7581,-168.8618 -75.1881,-45.3289 -161.8288,-43.2216 -193.5204,4.7126 -31.6919,47.9316 3.5702,123.5327 78.7581,168.8615" />
    </clipPath>
    <linearGradient
       id="linearGradient4258-6"
       spreadMethod="pad"
       gradientUnits="userSpaceOnUse"
       y2="353.01999"
       x2="366.41"
       y1="177.82001"
       x1="101.43">
      <stop
         id="stop4260-2"
         offset="0"
         style="stop-opacity:1;stop-color:#0095d4" />
      <stop
         id="stop4262-6"
         offset="1"
         style="stop-opacity:1;stop-color:#005a8d" />
    </linearGradient>
  </defs>
  <sodipodi:namedview
     id="base"
     pagecolor="#ffffff"
     bordercolor="#666666"
     borderopacity="1.0"
     inkscape:pageopacity="0.0"
     inkscape:pageshadow="2"
     inkscape:zoom="0.7"
     inkscape:cx="236.38616"
     inkscape:cy="195.64844"
     inkscape:document-units="px"
     inkscape:current-layer="svg2"
     showgrid="false"
     fit-margin-top="0"
     fit-margin-left="0"
     fit-margin-right="0"
     fit-margin-bottom="0"
     inkscape:window-width="2560"
     inkscape:window-height="1056"
     inkscape:window-x="0"
     inkscape:window-y="24"
     inkscape:window-maximized="1" />
  <metadata
     id="metadata7">
    <rdf:RDF>
      <cc:Work
         rdf:about="">
        <dc:format>image/svg+xml</dc:format>
        <dc:type
           rdf:resource="http://purl.org/dc/dcmitype/StillImage" />
        <dc:title></dc:title>
      </cc:Work>
    </rdf:RDF>
  </metadata>
  <g
     id="g4457"
     transform="translate(-21.259843,-24.05089)">
    <path
       d="m 215.09627,82.923125 c 103.4147,9.779499 184.3509,72.741995 180.7733,140.635615 -3.5741,67.89075 -90.308,115.00012 -193.7226,105.221 C 98.732702,319.00011 17.799707,256.03449 21.373807,188.14412 24.951207,120.25012 111.6818,73.143875 215.09627,82.923125"
       style="fill:#ddb825;fill-opacity:1;fill-rule:evenodd;stroke:none"
       id="petala-laranja-esquerda"
       inkscape:connector-curvature="0" />
    <g
       transform="matrix(1.25,0,0,-1.25,-76.978393,586.39549)"
       id="petala-azul-inferior">
      <g
         id="g4252"
         clip-path="url(#clipPath4254-6)">
        <path
           d="m 176.5392,352.205 c 75.1881,45.3291 161.8288,43.219 193.5204,-4.7123 31.6919,-47.9316 -3.5702,-123.533 -78.7581,-168.8618 -75.1881,-45.3289 -161.8288,-43.2216 -193.5204,4.7126 -31.6919,47.9316 3.5702,123.5327 78.7581,168.8615"
           style="fill:url(#linearGradient4258-6);fill-rule:evenodd;stroke:none"
           id="path4264"
           inkscape:connector-curvature="0" />
      </g>
    </g>
    <g
       transform="matrix(1.25,0,0,-1.25,-76.978393,586.39549)"
       id="petala-verde-superior">
      <g
         id="g4268"
         clip-path="url(#clipPath4270-2)">
        <path
           d="m 310.4623,421.3559 c 61.6867,-39.9796 89.174,-107.1388 61.3916,-150.0035 -27.7801,-42.8649 -100.3062,-45.2032 -161.9929,-5.2234 -61.687,39.9799 -89.1743,107.1363 -61.3916,150.0038 27.7798,42.8646 100.3062,45.2029 161.9929,5.2231"
           style="fill:url(#linearGradient4274-0);fill-rule:evenodd;stroke:none"
           id="path4280"
           inkscape:connector-curvature="0" />
      </g>
    </g>
    <g
       transform="matrix(1.25,0,0,-1.25,-76.978393,586.39549)"
       id="petala-verde-direita">
      <g
         id="g4284"
         clip-path="url(#clipPath4286-5)">
        <path
           d="m 176.5375,352.2039 c 75.1878,45.3296 161.8316,43.2175 193.5238,-4.714 11.3391,-17.146 14.1032,-37.8338 9.5391,-59.4114 -1.7827,-5.8756 -4.3486,-11.4837 -7.7465,-16.7267 -27.7781,-42.8629 -100.3076,-45.2021 -161.9926,-5.2217 -28.0792,18.1982 -49.0703,42.0262 -60.9891,66.6324 8.4849,6.9188 17.7213,13.4472 27.6653,19.4414"
           style="fill:url(#linearGradient4290-2);fill-rule:evenodd;stroke:none"
           id="path4296"
           inkscape:connector-curvature="0" />
      </g>
    </g>
    <g
       transform="matrix(1.25,0,0,-1.25,-76.978393,586.39549)"
       id="petala-laranja-overlay">
      <g
         id="petala-overlay"
         clip-path="url(#clipPath4302-3)">
        <path
           d="m 377.1944,281.4327 c -9.4878,-49.4938 -75.7318,-82.7283 -153.8924,-75.3384 -55.2617,5.2243 -102.4922,29.4358 -126.9175,61.1235 10.3841,22.9944 28.3566,45.8708 52.4857,65.5495 11.9191,-24.6082 32.91,-48.4393 60.9902,-66.6386 61.6859,-39.979 134.2134,-37.6404 161.9944,5.2243 2.0922,3.2284 3.865,6.5979 5.3396,10.0797"
           style="fill:url(#linearGradient4306-7);fill-rule:evenodd;stroke:none"
           id="path4312"
           inkscape:connector-curvature="0" />
      </g>
    </g>
  </g>
  <path
     inkscape:connector-curvature="0"
     id="texto-ab2l"
     style="fill:#000000;fill-opacity:1;fill-rule:nonzero;stroke:none"
     d="m 510.51741,379.88603 105.34537,0 10.11051,-66.50591 78.74122,0 10.11052,66.50591 105.34536,0 L 727.59121,5.3449264e-5 l -124.50512,0 L 510.51741,379.88603 Z m 182.49312,-140.98752 -55.33357,0 27.1357,-161.219412 1.06251,0 27.13536,161.219412 z m 146.84008,140.98752 149.50555,0 c 82.46894,0 114.38314,-46.28441 114.38314,-112.25957 0,-39.3695 -20.2101,-81.93645 -70.2238,-86.72662 l 0,-1.06236 c 42.0273,-8.51759 59.5824,-44.69088 59.5824,-85.123933 0,-56.936299 -32.9767,-94.713458550736 -103.74174,-94.713458550736 l -149.50555,0 0,379.885971550736 z m 98.96225,-308.590664 23.9389,0 c 20.2217,0 31.3943,18.097991 31.3943,39.370724 0,20.22151 -11.1726,38.30833 -31.3943,38.30833 l -23.9389,0 0,-77.679054 z m 0,144.716574 27.6664,0 c 18.0867,0 35.11224,16.49287 35.11224,45.76317 0,30.85313 -17.02554,46.81602 -35.11224,46.81602 l -27.6664,0 0,-92.57919 z m 285.70354,-85.12434 0,-15.96251 c 0,-42.557015 13.8383,-50.012243 27.667,-50.012243 15.4317,0 25.5419,10.110355 25.5419,42.035783 0,28.19797 -7.4551,42.55698 -26.6044,61.71613 l -65.9751,67.03749 c -43.098,44.15971 -56.3948,92.04802 -56.3948,144.18378 l 247.9372,0 0,-74.4812 -129.8263,0 c 3.7277,-11.17389 15.9629,-22.34661 24.4807,-30.86306 l 58.5199,-56.92713 c 28.1966,-28.1972 46.8257,-60.6538 46.8257,-111.7284 0,-56.405116 -22.3463,-102.6895436 -121.3083,-102.6895436 -51.0849,0 -81.9381,12.7662736 -100.0245,35.1117096 -18.0966,22.345435 -22.8869,53.740051 -23.4182,92.579194 l 92.5792,0 z m 194.1978,248.99843 220.8003,0 0,-80.87527 -121.8386,0 0,-299.010706550736 -98.9617,0 0,379.885976550736 z" />
</svg>
