<svg xmlns="http://www.w3.org/2000/svg" viewBox="4224 8250 94 35">
  <defs>
    <style>
      .cls-1 {
        fill: #212121;
      }
    </style>
  </defs>
  <g id="Layer_2_2_" transform="translate(4223.99 8249.939)">
    <path id="Path_551" data-name="Path 551" class="cls-1" d="M1144.926,431.668c-.183-.2-.455-.135-.686-.217a2.871,2.871,0,0,1-2.018-2.585,2.807,2.807,0,0,1,1.57-3.005,3.476,3.476,0,0,1,3.52.162c.34.2.333.244.054.508-.088.088-.177.169-.272.257-.136.122-.251.291-.408.345-.177.068-.265-.169-.408-.25a1.658,1.658,0,0,0-2.256.6,1.714,1.714,0,0,0-.2.548,1.764,1.764,0,0,0,1.053,2.186,1.458,1.458,0,0,0,1.556-.264c.224-.2.347-.169.523.02a3.184,3.184,0,0,0,.476.433c.265.2.2.345-.02.514a3.145,3.145,0,0,1-1.332.629c-.115.02-.251-.014-.333.108Z" transform="translate(-1064.57 -396.607)"/>
    <path id="Path_552" data-name="Path 552" class="cls-1" d="M1319.752,431.851c-.082-.149-.238-.1-.36-.135a3.016,3.016,0,0,1-1.237-.6c-.129-.108-.177-.2-.027-.325.061-.054.109-.115.163-.169.183-.183.333-.447.557-.535.251-.095.4.244.632.338a1.36,1.36,0,0,0,1.135.1.529.529,0,0,0,.367-.474.513.513,0,0,0-.272-.535,7.962,7.962,0,0,0-1.23-.474,1.591,1.591,0,0,1-1.2-1.7,1.745,1.745,0,0,1,1.4-1.577,3.1,3.1,0,0,1,2.562.406c.218.142.245.271.048.44-.082.074-.15.169-.231.244-.136.135-.251.318-.414.393-.2.095-.3-.176-.469-.244a1.3,1.3,0,0,0-1.074-.095.553.553,0,0,0-.381.474.488.488,0,0,0,.333.5c.313.135.632.23.952.338a2.4,2.4,0,0,1,1.026.569,1.716,1.716,0,0,1-.36,2.585,2.3,2.3,0,0,1-.775.325c-.136.034-.292,0-.4.122Z" transform="translate(-1228.455 -396.79)"/>
    <path id="Path_553" data-name="Path 553" class="cls-1" d="M27.322,33.2c0,1.739.007,3.472-.007,5.211,0,.25.061.325.319.325,1.291-.014,2.582-.007,3.874,0,.1,0,.245-.068.306.068s-.061.21-.116.3A22.79,22.79,0,0,1,24.814,46a26.057,26.057,0,0,1-5.627,2.782,23.307,23.307,0,0,1-4.125,1.042,14.84,14.84,0,0,1-3.908.2,15.949,15.949,0,0,1-3.588-.7,11.179,11.179,0,0,1-3.072-1.543A8.593,8.593,0,0,1,1.43,43.633a11.187,11.187,0,0,1-.523-4.413c.027-.481.1-.548.591-.548.53,0,1.067-.007,1.6,0,.245.007.36-.068.394-.338.061-.44.19-.866.265-1.3a.452.452,0,0,1,.516-.4,7.756,7.756,0,0,1,1.312.047c.2.041.408-.1.646.007A.416.416,0,0,1,6.486,37c.116.487.231.975.333,1.469.027.115.054.176.183.19a14.436,14.436,0,0,0,2.025.068c.217,0,.333-.1.3-.332a2.6,2.6,0,0,0-.041-.332c-.245-.88-.428-1.78-.659-2.667-.36-1.347-.639-2.714-.992-4.068-.285-1.1-.53-2.2-.788-3.3a.362.362,0,0,0-.428-.318c-.748.014-1.5,0-2.243.007-.618,0-.612.007-.741.582-.285,1.259-.591,2.511-.883,3.763-.245,1.056-.557,2.091-.754,3.161a.061.061,0,0,1-.007.034c-.068.162-.1.4-.279.426-.129.02-.2-.2-.285-.332A7.678,7.678,0,0,1,.057,32.08a8.484,8.484,0,0,1,.109-2.552A7.672,7.672,0,0,1,1.83,26.192,11.55,11.55,0,0,1,4.474,23.83a15.912,15.912,0,0,1,1.76-.975,3.951,3.951,0,0,1,.843-.379,1.182,1.182,0,0,0,.89-.914,6.36,6.36,0,0,1,1.481-2.389,8.028,8.028,0,0,1,2.4-1.719,12.048,12.048,0,0,1,3.2-.927,11.484,11.484,0,0,1,2.929-.054,14.632,14.632,0,0,1,2.712.562,18.481,18.481,0,0,1,3.024,1.137,19.971,19.971,0,0,1,4.954,3.377,17.492,17.492,0,0,1,3.547,4.467,14.14,14.14,0,0,1,1.468,3.7,10.621,10.621,0,0,1,.183,3.648,13.711,13.711,0,0,1-.809,3.012c-.041.115-.054.264-.224.081-.041-.047-.17-.027-.258-.027-.761,0-1.515-.014-2.277.007-.326.007-.449-.074-.449-.433.014-2.64.007-5.279.007-7.919,0-.453,0-.447-.469-.447-.591,0-1.176.02-1.767-.007-.272-.014-.319.095-.319.325.02,1.753.014,3.5.02,5.252ZM12.7,27.634c-.741,0-1.284.027-1.828-.007-.36-.02-.428.122-.428.447.027,1.624,0,3.249.034,4.866.041,1.746-.027,3.492.02,5.238.014.535.02.555.571.548.333-.007.68-.054,1-.034a17.361,17.361,0,0,0,2.718-.034,3.372,3.372,0,0,0,1.5-.535,3.2,3.2,0,0,0,.979-3.7,2.294,2.294,0,0,0-1.237-1.354c-.116-.054-.347-.122-.1-.277a2.69,2.69,0,0,0,1.155-2.633,2.562,2.562,0,0,0-2.012-2.4A11.311,11.311,0,0,0,12.7,27.634Zm9.419,11.093c.985,0,1.971-.014,2.956.007.292.007.374-.108.367-.372-.014-.406-.007-.812-.007-1.218,0-.521-.027-.541-.55-.548-.917,0-1.835-.007-2.752,0-.245,0-.285-.081-.136-.264.224-.264.442-.535.68-.792.639-.7,1.278-1.415,1.855-2.179a4.264,4.264,0,0,0,.992-3.093,2.993,2.993,0,0,0-1.074-2.132,3.585,3.585,0,0,0-2.922-.677,3.217,3.217,0,0,0-2.263,1.408,4.587,4.587,0,0,0-.578,1.638c-.041.156.034.244.217.257.618.054,1.23.115,1.842.176.17.02.245-.047.272-.21a1.864,1.864,0,0,1,.387-.887.977.977,0,0,1,.985-.284.772.772,0,0,1,.625.629A2.343,2.343,0,0,1,22.4,32.4c-.965,1.151-1.971,2.267-2.977,3.391a1.853,1.853,0,0,0-.639,1.638,3.734,3.734,0,0,1,.007.914c-.02.291.075.393.381.393C20.145,38.72,21.131,38.727,22.116,38.727Z" transform="translate(0 -15.239)"/>
    <path id="Path_554" data-name="Path 554" class="cls-1" d="M776.683,284.714c.19-.778.367-1.523.55-2.274.1-.406.217-.805.285-1.211.048-.277.184-.325.435-.318,1.033.014,2.059.007,3.092.007.815,0,1.631.007,2.446-.007.211,0,.3.047.3.277.014.927.02.927-.911.927-.761,0-.761,0-.761.744,0,1.218-.014,2.436.007,3.655.007.277-.082.352-.34.332a6.023,6.023,0,0,0-.782.007c-.251.02-.326-.081-.326-.332.014-1.367,0-2.728.014-4.095,0-.257-.061-.332-.319-.318-.326.02-.659-.014-.985.007-.292.02-.435-.068-.381-.372.007-.047-.02-.095-.1-.156-.115.4-.238.8-.347,1.2-.36,1.286-.727,2.572-1.087,3.858a.223.223,0,0,1-.238.19h-.374c-.9,0-.89-.007-1.128-.887-.251-.907-.516-1.814-.781-2.721a3.761,3.761,0,0,0-.15-.345c-.238.8-.448,1.536-.666,2.267-.143.474-.3.948-.414,1.421a.291.291,0,0,1-.36.257c-.387-.034-.883.169-1.142-.108-.238-.257-.245-.731-.353-1.11-.415-1.482-.822-2.964-1.25-4.44-.075-.257,0-.291.217-.284.326.007.659.014.985,0,.217-.014.306.088.353.278.251,1.083.5,2.166.754,3.242.014.068-.027.183.088.189.136.007.1-.122.122-.2.292-1.1.591-2.193.877-3.289a.244.244,0,0,1,.285-.217c.34.007.68.014,1.019,0,.2-.007.272.068.319.257.272,1.056.557,2.1.843,3.154A.864.864,0,0,0,776.683,284.714Z" transform="translate(-718.209 -261.816)"/>
    <path id="Path_555" data-name="Path 555" class="cls-1" d="M631.726,286.488c.367-.873.734-1.753,1.094-2.626.353-.839.714-1.672,1.053-2.518a.324.324,0,0,1,.374-.25c.17.014.34,0,.51,0,.618,0,.618,0,.849.555.693,1.692,1.386,3.384,2.093,5.069.116.277.054.332-.217.311-.19-.014-.387,0-.578,0-.7,0-.714.007-.951-.656a.537.537,0,0,0-.632-.433c-.517.034-1.04.02-1.563.007a.328.328,0,0,0-.374.244c-.326.839-.326.839-1.223.832-1.3,0-2.6-.007-3.908,0-.251,0-.353-.047-.353-.332q.02-2.64,0-5.279c0-.25.061-.345.319-.332a5.925,5.925,0,0,0,.849,0c.224-.014.285.068.285.291-.014,1.333-.007,2.66-.007,3.993,0,.528-.068.453.476.46.489.007.972.02,1.461-.007.292-.014.381.088.347.359a1.458,1.458,0,0,0,.014.3Zm2.188-1.739c.442,0,.836-.007,1.23,0,.19.007.2-.068.149-.223-.177-.481-.347-.968-.523-1.448-.02-.061-.02-.142-.109-.149-.115-.007-.1.1-.122.169-.211.535-.408,1.063-.625,1.651Z" transform="translate(-585.22 -261.999)"/>
    <path id="Path_556" data-name="Path 556" class="cls-1" d="M766.1,430.055c0,.42-.007.832.007,1.252a.33.33,0,0,1-.251.372,4.478,4.478,0,0,1-3.738-.027,3.012,3.012,0,0,1-1.475-3.337,3.129,3.129,0,0,1,3.745-2.342,3.856,3.856,0,0,1,1.427.494c.2.115.252.244.061.413-.075.068-.136.149-.2.223-.15.169-.279.4-.469.481s-.347-.19-.53-.284a1.87,1.87,0,1,0-1.176,3.54,2.218,2.218,0,0,0,1.169-.074c.082-.02.116-.054.116-.135a.512.512,0,0,1,.007-.1c.041-.826.041-.839-.782-.833-.265,0-.347-.061-.34-.338.02-.846,0-.846.843-.846a11.606,11.606,0,0,0,1.189-.007c.374-.041.435.108.415.433-.027.372-.007.745-.014,1.117Z" transform="translate(-708.878 -397.045)"/>
    <path id="Path_557" data-name="Path 557" class="cls-1" d="M1137.058,284.111c0,.893-.007,1.78.007,2.673,0,.237-.075.318-.312.3-.292-.014-.591-.014-.884,0-.2.007-.258-.068-.251-.25.007-.643-.007-1.286.007-1.929.007-.23-.048-.318-.3-.3-.578.02-1.155.014-1.733,0-.19,0-.252.061-.252.25.014.643-.007,1.286.007,1.929.007.237-.081.318-.313.311-.292-.014-.591-.007-.883,0-.183,0-.251-.068-.251-.264.007-1.807.007-3.607,0-5.414,0-.223.1-.271.285-.264.285.007.564.014.849,0,.238-.014.319.068.313.3-.014.562.007,1.13-.014,1.692-.007.21.061.271.265.264.591-.014,1.176-.014,1.767,0,.2.007.251-.061.251-.244-.007-.562.007-1.13-.007-1.692-.007-.237.048-.352.313-.332a4.1,4.1,0,0,0,.815,0c.272-.027.319.088.313.325-.007.887,0,1.766.007,2.64Z" transform="translate(-1054.969 -262.058)"/>
    <path id="Path_558" data-name="Path 558" class="cls-1" d="M1235.279,430.234c0,.893-.007,1.78.007,2.673.007.237-.081.3-.292.291-.292-.014-.591-.014-.883,0-.211.013-.272-.068-.265-.278.014-.629-.014-1.266.014-1.9.014-.284-.089-.338-.347-.332-.557.02-1.108.02-1.665,0-.231-.007-.292.074-.285.291.013.629,0,1.266.007,1.9.007.23-.061.332-.306.318-.292-.014-.591-.007-.884,0-.163,0-.251-.041-.251-.23,0-.372-.02-.744-.02-1.117,0-1.4.007-2.8-.007-4.2,0-.311.082-.433.4-.406a4.184,4.184,0,0,0,.714,0c.258-.02.367.054.353.338-.02.548,0,1.1-.014,1.658-.007.23.075.291.292.284q.866-.02,1.733,0c.211.007.279-.061.272-.264-.014-.575.007-1.151-.007-1.726-.007-.23.068-.3.285-.284.292.014.591.014.884,0,.211-.007.272.068.272.271C1235.279,428.427,1235.279,429.334,1235.279,430.234Z" transform="translate(-1146.495 -398.273)"/>
    <path id="Path_559" data-name="Path 559" class="cls-1" d="M854.748,433.145c-.768,0-.775.007-1.067-.724a.469.469,0,0,0-.537-.365c-.544.034-1.087.02-1.631,0a.328.328,0,0,0-.374.244c-.326.839-.333.839-1.216.839-.673,0-.673,0-.414-.623.686-1.638,1.373-3.269,2.045-4.914a.561.561,0,0,1,.625-.406c.972.027.951.014,1.318.92q.958,2.365,1.957,4.724c.1.25.075.325-.19.3C855.088,433.138,854.918,433.145,854.748,433.145Zm-3.092-2.281c.448,0,.849-.007,1.257,0,.183,0,.177-.074.122-.21-.136-.359-.265-.711-.394-1.069a1.236,1.236,0,0,0-.285-.6Z" transform="translate(-791.619 -398.226)"/>
    <path id="Path_560" data-name="Path 560" class="cls-1" d="M691.6,430.378c0-.893.014-1.78-.007-2.673-.007-.25.082-.3.313-.3,1.135.007,2.263.007,3.4,0,.19,0,.272.054.265.244-.007.237-.014.474,0,.7s-.1.264-.285.257c-.659-.007-1.312.007-1.971-.007-.224-.007-.34.034-.313.291.027.278-.082.643.054.812.15.19.53.054.809.061.428.014.863.02,1.291,0,.238-.014.285.081.285.291.014.92.02.92-.9.92-.428,0-.863.007-1.291-.007-.2-.007-.245.061-.245.25-.02.914-.027.914.9.914.51,0,1.019.007,1.529,0,.217-.007.3.061.3.291.02.92.027.92-.89.92-.972,0-1.95-.007-2.922.007-.258,0-.326-.074-.326-.332.014-.88.007-1.76.007-2.64Z" transform="translate(-644.586 -398.417)"/>
    <path id="Path_561" data-name="Path 561" class="cls-1" d="M1071.014,430.231c0-.853.007-1.712-.007-2.565-.007-.257.061-.365.34-.365q1.682.02,3.364,0c.224,0,.292.061.292.284.007.92.014.92-.911.92-.455,0-.9.014-1.359-.007-.251-.014-.312.074-.292.3a2.114,2.114,0,0,1,0,.508c-.034.271.047.372.347.359.612-.027,1.223,0,1.835-.014.19,0,.251.054.258.244.041.968.048.968-.931.968-.428,0-.863.007-1.291,0-.163,0-.2.054-.217.21-.048.948-.054.948.9.948.51,0,1.019.007,1.529,0,.217-.007.292.061.3.291.027.92.034.92-.884.92-.965,0-1.923-.014-2.888.007-.3.007-.394-.095-.394-.386.021-.866.014-1.746.014-2.626Z" transform="translate(-998.207 -398.324)"/>
    <path id="Path_562" data-name="Path 562" class="cls-1" d="M972.908,284.172c0-.887.007-1.78-.007-2.673,0-.244.075-.311.306-.3q1.682.01,3.364,0c.245,0,.319.074.3.311a5.067,5.067,0,0,0,0,.643c.013.217-.082.271-.279.271-.659-.007-1.312,0-1.971-.014-.231-.007-.34.034-.34.3.007.86-.007.86.863.86.455,0,.9.007,1.359-.007.183-.007.224.061.231.23.041.975.041.975-.945.975-.394,0-.8.007-1.189-.007-.224-.007-.319.041-.319.291,0,.88-.007.88.883.88.523,0,1.04.007,1.563-.007.217-.007.3.054.3.277.027.92.034.92-.883.92-.965,0-1.923-.007-2.888.007-.285.007-.367-.088-.36-.365C972.915,285.9,972.908,285.038,972.908,284.172Z" transform="translate(-906.769 -262.106)"/>
    <path id="Path_563" data-name="Path 563" class="cls-1" d="M1046.535,285.773a2.972,2.972,0,0,1-2.922-2.064,3.1,3.1,0,0,1,1.033-3.452,3.623,3.623,0,0,1,3.928-.081c.333.237.333.257.034.535l-.2.183a1.612,1.612,0,0,1-.421.386c-.217.1-.306-.169-.469-.25a1.627,1.627,0,0,0-1.76.108,1.754,1.754,0,0,0-.727,1.685,1.653,1.653,0,0,0,1.794,1.658,1.333,1.333,0,0,0,.938-.413c.15-.156.251-.142.387,0a6.918,6.918,0,0,0,.571.528c.2.162.211.277.007.447A3.1,3.1,0,0,1,1046.535,285.773Z" transform="translate(-972.526 -260.654)"/>
    <path id="Path_564" data-name="Path 564" class="cls-1" d="M1221.7,285.931a3.215,3.215,0,0,1-1.978-.67c-.163-.129-.177-.223-.014-.365a6.514,6.514,0,0,0,.571-.575c.136-.156.231-.149.387-.014a1.472,1.472,0,0,0,1.434.393.569.569,0,0,0,.455-.48.535.535,0,0,0-.36-.589c-.38-.169-.781-.291-1.169-.447a1.54,1.54,0,0,1-1.176-1.773,1.71,1.71,0,0,1,1.339-1.482,3.058,3.058,0,0,1,2.589.386c.224.149.279.277.054.46a1.2,1.2,0,0,0-.088.1,2.377,2.377,0,0,1-.523.521c-.251.135-.36-.217-.578-.284a1.307,1.307,0,0,0-.985-.041.552.552,0,0,0-.374.508.494.494,0,0,0,.367.474c.36.149.741.271,1.108.406a1.6,1.6,0,0,1,1.257,1.726,1.837,1.837,0,0,1-1.529,1.665A3.186,3.186,0,0,1,1221.7,285.931Z" transform="translate(-1136.706 -260.806)"/>
    <path id="Path_565" data-name="Path 565" class="cls-1" d="M996.052,431.06c0,.69-.014,1.374.007,2.064.007.264-.082.338-.326.318a2.854,2.854,0,0,0-.68,0c-.367.047-.455-.1-.449-.447.014-1.306-.007-2.612.014-3.919.007-.318-.1-.4-.394-.379-.347.027-.7,0-1.053.007-.17,0-.231-.068-.238-.237-.054-.968-.061-.961.911-.961,1.176,0,2.351.007,3.534-.007.265,0,.353.068.347.338-.014.866,0,.866-.863.866-.8,0-.8,0-.8.805-.014.508-.014,1.029-.014,1.55Z" transform="translate(-925.428 -398.51)"/>
    <path id="Path_566" data-name="Path 566" class="cls-1" d="M947.114,430.22c0-.866.007-1.733-.007-2.606,0-.25.082-.345.333-.332.285.014.564.014.849,0,.245-.014.306.088.3.318-.007,1.36,0,2.728-.014,4.095,0,.257.061.345.333.332.544-.02,1.087,0,1.631-.007.224-.007.319.041.319.3,0,.92.007.914-.911.914-.829,0-1.651-.014-2.481.007-.285.007-.367-.095-.367-.372C947.12,431.98,947.114,431.1,947.114,430.22Z" transform="translate(-882.728 -398.307)"/>
    <path id="Path_567" data-name="Path 567" class="cls-1" d="M629.261,429.742c0,.7.007,1.4-.007,2.1,0,.2.054.271.265.264.591-.014,1.176,0,1.767-.007.19,0,.251.054.258.25.048.961.048.961-.9.961-.836,0-1.679-.007-2.515.007-.258.007-.326-.081-.326-.332q.02-2.65,0-5.313c0-.244.075-.318.306-.3a5.925,5.925,0,0,0,.849,0c.251-.02.3.088.292.311C629.254,428.362,629.261,429.052,629.261,429.742Z" transform="translate(-585.127 -398.384)"/>
    <path id="Path_568" data-name="Path 568" class="cls-1" d="M1242.318,17.4a2.7,2.7,0,1,1-2.718,2.667A2.63,2.63,0,0,1,1242.318,17.4Zm1.93,2.606a3.793,3.793,0,0,0-.041-.4,1.92,1.92,0,0,0-1.332-1.557,1.732,1.732,0,0,0-1.937.528,2.376,2.376,0,0,0-.483,2.125,1.9,1.9,0,0,0,2.215,1.523,1.643,1.643,0,0,0,.367-.108A2.09,2.09,0,0,0,1244.248,20.006Z" transform="translate(-1155.349 -16.166)"/>
    <path id="Path_569" data-name="Path 569" class="cls-1" d="M824.225,17.4a2.7,2.7,0,0,1,.136,5.4h-.054a2.7,2.7,0,1,1-.082-5.4ZM822.3,20.188a2.381,2.381,0,0,0,.034.379,1.887,1.887,0,0,0,1.515,1.651,1.78,1.78,0,0,0,1.815-.643,2.463,2.463,0,0,0,.048-2.863,1.826,1.826,0,0,0-2.073-.663A2.059,2.059,0,0,0,822.3,20.188Z" transform="translate(-765.663 -16.166)"/>
    <path id="Path_570" data-name="Path 570" class="cls-1" d="M628.1,150.362c0-.731.007-1.469-.007-2.2-.007-.244.048-.352.313-.332a11.534,11.534,0,0,1,2.161.095,1.139,1.139,0,0,1,.9.948,1.047,1.047,0,0,1-.5,1.164c-.211.129-.19.183.041.291a1.273,1.273,0,0,1,.163,2.2,2.025,2.025,0,0,1-1.142.365c-.557.007-1.108-.007-1.665.007-.238.007-.279-.095-.272-.3C628.1,151.844,628.1,151.1,628.1,150.362Zm.754,1.015h0v.744c0,.081-.041.21.1.2a3.2,3.2,0,0,0,1.631-.183.785.785,0,0,0,.387-.832.742.742,0,0,0-.55-.7,4.324,4.324,0,0,0-1.142-.1c-.326-.027-.53.02-.442.42A1.649,1.649,0,0,1,628.852,151.377Zm.014-2.288c-.014.25-.014.447-.034.636-.014.162.02.257.211.25.292-.007.591.014.883,0a.81.81,0,0,0,.822-.7c.041-.481-.15-.724-.673-.839a1.9,1.9,0,0,0-.435-.041c-.258.007-.6-.108-.748.061C628.77,148.575,628.865,148.906,628.865,149.089Z" transform="translate(-585.397 -137.764)"/>
    <path id="Path_571" data-name="Path 571" class="cls-1" d="M700.336,152.79a2.97,2.97,0,0,1-.72.041c-.177.014-.218-.135-.285-.25-.347-.6-.693-1.211-1.04-1.814a.84.84,0,0,0-.816-.169c-.081.068-.048.169-.048.257,0,.562-.02,1.13.007,1.692.02.413-.279.25-.462.284-.238.041-.272-.088-.272-.291q.01-2.264,0-4.528c0-.149.007-.25.183-.244a15.517,15.517,0,0,1,2.1.068,1.322,1.322,0,0,1,.265,2.579c-.245.095-.279.162-.136.386C699.527,151.45,699.914,152.106,700.336,152.79Zm-2.243-4.46c-.156,0-.319.007-.476,0s-.2.061-.19.2q.01.66,0,1.32c0,.1.014.19.143.183a3.618,3.618,0,0,0,1.373-.115.742.742,0,0,0,.489-.772.721.721,0,0,0-.537-.731,1.906,1.906,0,0,0-.8-.088Z" transform="translate(-649.344 -137.708)"/>
    <path id="Path_572" data-name="Path 572" class="cls-1" d="M1242,150.319c0-.744.007-1.489-.007-2.233,0-.21.034-.3.272-.291.7.034,1.4-.047,2.1.054a2.422,2.422,0,0,1,2.161,2.457,2.459,2.459,0,0,1-2.107,2.477,18.938,18.938,0,0,1-2.236.074c-.211.014-.19-.129-.19-.271,0-.758,0-1.509.007-2.267Zm.707.014v1.719c0,.129-.02.264.17.257a5.189,5.189,0,0,0,1.516-.1,1.757,1.757,0,0,0,1.312-1.509,1.885,1.885,0,0,0-.815-2.024,3.6,3.6,0,0,0-2.039-.318c-.177,0-.136.142-.136.25C1242.706,149.182,1242.706,149.758,1242.706,150.333Z" transform="translate(-1157.579 -137.735)"/>
    <path id="Path_573" data-name="Path 573" class="cls-1" d="M1078.761,152.811c-.292,0-.516-.007-.741,0-.163.007-.2-.108-.265-.217-.34-.582-.673-1.171-1.012-1.753a.737.737,0,0,0-.836-.271c-.129.061-.088.169-.088.264,0,.575-.021,1.151.007,1.726.014.311-.17.257-.347.25s-.387.088-.381-.25c.014-1.523.007-3.046.007-4.562,0-.108-.027-.244.15-.237a12.044,12.044,0,0,1,2.263.088,1.238,1.238,0,0,1,1.033,1.036,1.26,1.26,0,0,1-.523,1.333.9.9,0,0,1-.17.108c-.489.23-.5.23-.2.7C1078.006,151.6,1078.36,152.168,1078.761,152.811Zm-2.943-3.668v.643c0,.108,0,.223.143.223a2.8,2.8,0,0,0,1.488-.176.753.753,0,0,0,.381-.8.742.742,0,0,0-.5-.629,1.692,1.692,0,0,0-.666-.095c-.856.007-.856,0-.849.832Z" transform="translate(-1002.027 -137.696)"/>
    <path id="Path_574" data-name="Path 574" class="cls-1" d="M1323.648,311.3a1.329,1.329,0,0,1,.992.345.945.945,0,0,1-.231,1.482c-.082.061-.272.081-.2.21a1.014,1.014,0,0,0,.36.338c.088.054.122-.068.163-.129a1.019,1.019,0,0,1,1.053-.359c.143.047.082.129.027.2-.156.21-.306.42-.469.616s-.177.338.034.514a6.41,6.41,0,0,1,.53.521c.047.047.115.095.068.169-.034.054-.1.034-.156.02a2.888,2.888,0,0,0-.639-.027c-.088-.007-.211.014-.258-.061-.231-.379-.448-.176-.707-.02a1.434,1.434,0,0,1-2.066-.7,1.028,1.028,0,0,1,.51-1.178c.1-.061.285-.088.122-.284a.93.93,0,0,1-.143-1.123A1.185,1.185,0,0,1,1323.648,311.3Zm-.1,3.357c.15,0,.442-.149.462-.244.027-.162-.122-.223-.2-.325a2.686,2.686,0,0,0-.238-.244.282.282,0,0,0-.5.088.5.5,0,0,0,.231.67A.457.457,0,0,0,1323.553,314.657Zm-.17-2.274c.048.149.082.386.313.365a.408.408,0,0,0,.374-.447.309.309,0,0,0-.347-.325C1323.485,311.984,1323.39,312.119,1323.383,312.383Z" transform="translate(-1232.249 -290.175)"/>
    <path id="Path_575" data-name="Path 575" class="cls-1" d="M1090.592,20.02a1.95,1.95,0,0,0,2,2.173,1.668,1.668,0,0,0,1.121-.487.523.523,0,0,1,.68.183c.034.108-.068.156-.129.217a2.47,2.47,0,0,1-1.461.636c-.088.014-.183-.027-.251.068-.034.054-.1.115-.1.169.007.088.1.061.163.068.313.054.557.183.591.541a.635.635,0,0,1-.5.7,1.529,1.529,0,0,1-1.026-.047c-.088-.027-.109-.074-.082-.149.034-.1.088-.19.217-.149a1.331,1.331,0,0,0,.394.088c.251-.007.469-.061.455-.365-.014-.284-.251-.271-.455-.284-.041,0-.088.034-.129.027-.156-.007-.238-.068-.156-.237a.905.905,0,0,1,.109-.169c.183-.2.1-.271-.122-.311A2.436,2.436,0,0,1,1089.933,21a2.628,2.628,0,0,1,.5-2.775,2.73,2.73,0,0,1,2.745-.812,2.2,2.2,0,0,1,.979.433c.15.122.19.223.007.359-.224.169-.36.271-.666.027a1.813,1.813,0,0,0-2.78.92A2.708,2.708,0,0,0,1090.592,20.02Z" transform="translate(-1015.68 -16.105)"/>
    <path id="Path_576" data-name="Path 576" class="cls-1" d="M758.477,152.894c-.326.081-.455-.047-.55-.318-.115-.311-.149-.724-.415-.9s-.659-.041-1-.054c-.374-.007-.747,0-1.121,0a.309.309,0,0,0-.353.23c-.088.291-.224.562-.333.846-.054.135-.116.223-.292.223-.734,0-.618.014-.374-.535.625-1.415,1.257-2.829,1.862-4.257.116-.271.285-.25.5-.271a.355.355,0,0,1,.408.257c.652,1.516,1.312,3.025,1.971,4.541C758.994,153.158,758.525,152.792,758.477,152.894Zm-2.154-1.821h0c.251,0,.5-.007.747,0,.17.007.2-.074.143-.21-.251-.636-.5-1.266-.754-1.9a.2.2,0,0,0-.109-.115c-.075-.02-.082.061-.1.108-.258.643-.5,1.293-.775,1.929-.082.19.014.183.136.183h.707Z" transform="translate(-702.613 -137.792)"/>
    <path id="Path_577" data-name="Path 577" class="cls-1" d="M1133.5,152.959l1.244-2.843c.285-.65.584-1.293.843-1.942.1-.257.285-.2.469-.21a.352.352,0,0,1,.408.217c.646,1.509,1.3,3.019,1.957,4.514.122.277.075.325-.217.332a.566.566,0,0,1-.659-.44c-.306-.866-.326-.86-1.237-.86-.408,0-.816.02-1.223,0a.359.359,0,0,0-.414.291c-.054.169-.129.338-.19.5C1134.268,153.067,1134.152,153.121,1133.5,152.959Zm2.548-4.027-.1.007c-.272.684-.537,1.374-.815,2.057-.075.183-.007.189.136.189h.951c.734,0,.734,0,.462-.67-.211-.535-.421-1.063-.639-1.584Z" transform="translate(-1056.46 -137.891)"/>
    <path id="Path_578" data-name="Path 578" class="cls-1" d="M625.128,25.7h-.659a.235.235,0,0,1-.245-.183c-.1-.277-.231-.541-.319-.812a.367.367,0,0,0-.415-.3c-.625.014-1.244.007-1.869,0-.177,0-.292.034-.353.23a7.862,7.862,0,0,1-.3.751.685.685,0,0,1-.829.3c-.122-.068-.034-.156,0-.223.346-.8.7-1.6,1.053-2.4.326-.738.659-1.475.972-2.22.088-.217.245-.2.415-.2s.333-.027.421.183C623.707,22.434,624.407,24.038,625.128,25.7Zm-2.576-4.128c-.306.744-.584,1.448-.87,2.152-.061.156.054.135.143.135.489,0,.972-.007,1.461,0,.211.007.224-.068.15-.237-.177-.413-.326-.839-.51-1.245a3.118,3.118,0,0,0-.374-.805Z" transform="translate(-577.928 -19.189)"/>
    <path id="Path_579" data-name="Path 579" class="cls-1" d="M1165.645,25.633c-.333.081-.483-.068-.578-.365s-.177-.711-.4-.866-.632-.047-.958-.054c-.387,0-.768.007-1.155,0-.177-.007-.292.034-.347.23-.061.217-.17.413-.251.623-.17.433-.353.535-.809.44-.2-.047-.1-.169-.061-.25.183-.433.374-.866.564-1.3.483-1.09.965-2.173,1.434-3.269a.335.335,0,0,1,.38-.244c.2.014.387-.027.5.237q.968,2.274,1.971,4.541C1166.134,25.8,1165.774,25.585,1165.645,25.633Zm-2.161-1.841v.014c.238,0,.476-.007.714,0,.177.007.231-.054.163-.217-.251-.636-.5-1.266-.747-1.9a.139.139,0,0,0-.122-.1c-.082,0-.068.074-.088.122-.177.426-.36.846-.523,1.272a2.616,2.616,0,0,0-.279.812Z" transform="translate(-1082.115 -19.126)"/>
    <path id="Path_580" data-name="Path 580" class="cls-1" d="M1017.574,25.641c-.285.095-.4-.1-.5-.372-.115-.3-.143-.724-.4-.866a2.262,2.262,0,0,0-.965-.054c-.394-.007-.8.007-1.189,0-.149,0-.245.02-.3.2-.075.244-.2.474-.292.717a.608.608,0,0,1-.809.379c-.177-.054-.075-.162-.041-.237.482-1.1.965-2.193,1.447-3.3.2-.44.394-.88.571-1.327.088-.237.265-.2.448-.2s.319,0,.408.2c.639,1.5,1.3,2.985,1.944,4.474C1018.056,25.641,1018.056,25.641,1017.574,25.641Zm-3.017-1.834h1.726c.149,0,.129-.081.1-.176-.258-.643-.51-1.286-.768-1.936-.02-.054-.048-.1-.116-.108s-.068.047-.081.088c-.279.7-.557,1.387-.856,2.132Z" transform="translate(-944.163 -19.128)"/>
    <path id="Path_581" data-name="Path 581" class="cls-1" d="M982.616,150.306c0-.731.007-1.462-.007-2.2,0-.223.041-.318.292-.311.9.02,1.808.014,2.718.007.211,0,.3.041.292.277s-.088.277-.306.277c-.659-.014-1.312.007-1.971-.007-.265-.007-.333.081-.319.325a6.813,6.813,0,0,1,0,.914c-.02.271.048.379.347.365.564-.027,1.128-.007,1.7-.007.2,0,.4-.061.4.284s-.224.264-.408.264c-.557.007-1.108.02-1.665-.007-.306-.014-.394.095-.374.386a10.172,10.172,0,0,1,0,1.117c-.013.25.054.332.319.325.68-.02,1.359-.007,2.039-.007.19,0,.347-.02.347.264s-.15.291-.36.284c-.9-.007-1.808-.007-2.718,0-.251.007-.353-.041-.347-.325.041-.744.027-1.489.021-2.227Z" transform="translate(-915.811 -137.736)"/>
    <path id="Path_582" data-name="Path 582" class="cls-1" d="M1323.086,150.306c0-.744.007-1.489-.007-2.233,0-.2.034-.284.252-.277.917.014,1.835.014,2.752.007.2,0,.3.027.292.271s-.082.284-.3.284c-.659-.014-1.312.007-1.971-.007-.258-.007-.333.081-.319.325a6.3,6.3,0,0,1,0,.88c-.027.3.068.413.387.4.544-.027,1.087-.014,1.631-.007.19,0,.435-.088.435.284s-.238.257-.415.257c-.557.007-1.108.014-1.665,0-.272-.007-.394.061-.374.359.021.393.021.792.007,1.184-.007.223.061.291.285.284.7-.014,1.407.007,2.107-.007.238-.007.306.061.313.3.014.277-.143.25-.319.25-.9,0-1.814-.014-2.718.007-.32.007-.394-.095-.381-.4.02-.724.007-1.442.007-2.166Z" transform="translate(-1233.154 -137.735)"/>
    <path id="Path_583" data-name="Path 583" class="cls-1" d="M835.351,149.849a2.537,2.537,0,0,1-1.509-.447c-.116-.081-.333-.189-.116-.345.156-.108.258-.508.584-.176a1.287,1.287,0,0,0,1.522.284.82.82,0,0,0,.482-.724.751.751,0,0,0-.415-.724,7.127,7.127,0,0,0-1.04-.393,1.415,1.415,0,0,1-.707-2.355,1.93,1.93,0,0,1,1.719-.508,2.244,2.244,0,0,1,.945.345c.156.1.19.2.034.338-.19.176-.313.365-.618.088a1.079,1.079,0,0,0-1.148-.162.777.777,0,0,0-.571.751.785.785,0,0,0,.571.751c.34.122.686.223,1.019.352a1.341,1.341,0,0,1,.951,1.367,1.431,1.431,0,0,1-1.006,1.408A1.732,1.732,0,0,1,835.351,149.849Z" transform="translate(-776.972 -134.605)"/>
    <path id="Path_584" data-name="Path 584" class="cls-1" d="M762.4,17.371a2.53,2.53,0,0,1,1.38.352c.1.061.3.149.109.3-.143.108-.211.467-.516.237a1.258,1.258,0,0,0-1.325-.237.781.781,0,0,0-.537.711.719.719,0,0,0,.489.738c.367.149.741.264,1.108.406a1.327,1.327,0,0,1,.945,1.4,1.444,1.444,0,0,1-1.047,1.381,2.393,2.393,0,0,1-2.127-.3c-.109-.068-.326-.142-.177-.345.238-.318.421-.365.632-.19a1.3,1.3,0,0,0,1.434.3.81.81,0,0,0,.551-.731.758.758,0,0,0-.428-.751,6.053,6.053,0,0,0-1.013-.372,1.412,1.412,0,0,1-.985-1.963A1.637,1.637,0,0,1,762.4,17.371Z" transform="translate(-708.951 -16.137)"/>
    <path id="Path_585" data-name="Path 585" class="cls-1" d="M700.269,22.747a2.448,2.448,0,0,1-1.284-.447c-.2-.142-.238-.25-.02-.433s.346-.25.6-.014a1.225,1.225,0,0,0,1.414.223.824.824,0,0,0,.5-.744.73.73,0,0,0-.394-.7,7.6,7.6,0,0,0-1.128-.433,1.4,1.4,0,0,1-.686-2.281,2.177,2.177,0,0,1,2.759-.169c.122.088.116.162.014.271-.2.21-.353.379-.673.1a1.1,1.1,0,0,0-1.414.02.737.737,0,0,0,.081,1.225,4.518,4.518,0,0,0,1.006.379,1.463,1.463,0,0,1,.979,2.22A1.878,1.878,0,0,1,700.269,22.747Z" transform="translate(-651.316 -16.112)"/>
    <path id="Path_586" data-name="Path 586" class="cls-1" d="M912.869,19.961a1.98,1.98,0,0,0,1.448,2.173,1.6,1.6,0,0,0,1.651-.413.524.524,0,0,1,.707.176c.034.122-.082.176-.149.237a2.515,2.515,0,0,1-2.08.6,2.606,2.606,0,0,1-2.29-1.915,2.725,2.725,0,0,1,1.06-3.012,2.981,2.981,0,0,1,3.106-.041c.116.081.36.142.224.365-.177.277-.455.338-.646.183a1.83,1.83,0,0,0-2.868.8A2.19,2.19,0,0,0,912.869,19.961Z" transform="translate(-850.067 -16.114)"/>
    <path id="Path_587" data-name="Path 587" class="cls-1" d="M61.4,226.01c-.224,0-.455.014-.68-.007s-.36-.108-.272-.372c.156-.481.2-.981.313-1.469.19-.826.279-1.678.537-2.491.02-.074.02-.183.109-.176a.2.2,0,0,1,.17.176c.109.6.217,1.211.347,1.807.163.738.238,1.5.449,2.22.054.176.007.291-.19.3-.258.007-.523,0-.782,0Z" transform="translate(-56.304 -206.448)"/>
    <path id="Path_588" data-name="Path 588" class="cls-1" d="M927.1,150.217c0-.744.02-1.489-.007-2.233-.014-.393.238-.257.421-.277.211-.02.306.014.306.284,0,1.259-.054,2.524.027,3.783.027.433.007.44.449.44.523,0,1.04.007,1.563,0,.211-.007.265.074.272.277s-.054.277-.265.271c-.829-.007-1.651-.007-2.48,0-.217,0-.292-.054-.285-.284.014-.744.007-1.5,0-2.261Z" transform="translate(-864.08 -137.647)"/>
    <path id="Path_589" data-name="Path 589" class="cls-1" d="M992.861,23.209c0,.731-.014,1.462.007,2.193.007.3-.15.3-.36.284-.183-.014-.408.088-.408-.264q.02-2.264,0-4.528c0-.284.163-.277.347-.264s.421-.068.415.277C992.848,21.673,992.861,22.438,992.861,23.209Z" transform="translate(-924.669 -19.173)"/>
    <path id="Path_590" data-name="Path 590" class="cls-1" d="M898.959,150.3c0,.744-.014,1.482.007,2.227.007.277-.122.325-.347.3-.2-.014-.428.061-.421-.3.02-1.509.027-3.012.02-4.521,0-.244.129-.257.292-.23s.442-.142.442.223C898.959,148.766,898.959,149.531,898.959,150.3Z" transform="translate(-837.149 -137.705)"/>
    <path id="Path_591" data-name="Path 591" class="cls-1" d="M1046.861,150.358c0,.744-.014,1.482.007,2.227.007.325-.177.3-.387.3s-.381.02-.381-.3c.02-1.482.014-2.971,0-4.453,0-.284.122-.318.347-.3.2.02.428-.068.421.3C1046.848,148.876,1046.861,149.62,1046.861,150.358Z" transform="translate(-975 -137.767)"/>
    <path id="Path_592" data-name="Path 592" class="cls-1" d="M1180.387.07a1.473,1.473,0,0,1,.734.237c.231.108.428.149.578-.115a.257.257,0,0,1,.354-.1c.19.068.047.223.02.318a.672.672,0,0,1-.951.467,3.444,3.444,0,0,1-.435-.176c-.231-.115-.428-.135-.578.122a.26.26,0,0,1-.353.108h0c-.17-.074-.054-.23-.027-.325A.657.657,0,0,1,1180.387.07Z" transform="translate(-1099.487 0)"/>
    <path id="Path_593" data-name="Path 593" class="cls-1" d="M187.972,276.57v-1.083c0-.2.088-.3.285-.291a4.138,4.138,0,0,1,1,.068,1.336,1.336,0,0,1,1.013,1.536c-.082.724-.455,1.117-1.346,1.164a2.294,2.294,0,0,1-.652.034c-.265-.054-.306-.183-.313-.386-.007-.352,0-.7,0-1.049Z" transform="translate(-175.173 -256.514)"/>
    <path id="Path_594" data-name="Path 594" class="cls-1" d="M188.1,213.87v-.948c0-.129.027-.237.177-.23.544.014,1.108-.115,1.57.318a1.231,1.231,0,0,1,.272,1.306.941.941,0,0,1-.877.772c-.306.02-.612,0-.917.007-.177.007-.238-.068-.231-.244C188.107,214.526,188.1,214.2,188.1,213.87Z" transform="translate(-175.301 -198.233)"/>
  </g>
</svg>
